<svg width="146" height="199" viewBox="0 0 146 199" fill="none" xmlns="http://www.w3.org/2000/svg">
<path d="M74.6505 113.801C75.3906 113.801 76.7302 114.401 77.6251 115.136C78.5204 115.866 83.7151 120.87 89.1749 126.259C94.6337 131.642 99.3628 136.684 99.6847 137.461C100.005 138.241 100.15 139.461 100.01 140.176C99.8548 140.936 98.3051 142.801 96.2501 144.691C94.325 146.46 90.275 149.779 87.2501 152.064C84.2251 154.353 79.5001 158.108 71.7501 164.607L71.9054 167.32C71.9953 168.815 72.1851 170.155 72.335 170.29C72.48 170.425 76.7999 170.926 81.9249 171.4C87.0549 171.875 92.0351 172.27 93.0001 172.285C94.5551 172.305 95.0305 171.96 97.2755 169.176C98.6655 167.451 102.605 162.551 106.025 158.292C109.45 154.033 113.36 148.86 114.715 146.795C116.07 144.735 117.665 141.921 118.26 140.546C119.24 138.281 119.305 137.551 118.975 132.797C118.77 129.913 118.58 126.369 118.555 124.924C118.51 122.919 118.735 122.065 119.5 121.3C120.05 120.75 120.95 120.3 121.5 120.3C122.05 120.3 122.91 120.695 123.41 121.175C124.19 121.93 124.37 123.34 124.71 131.298C125.09 140.285 125.07 140.611 123.981 142.795C123.361 144.035 121.49 147.07 119.825 149.544C118.16 152.019 114 157.533 110.575 161.792C107.155 166.051 103.49 170.55 102.435 171.79C101.38 173.029 100.536 174.264 100.55 174.539C100.565 174.814 102.935 177.174 105.81 179.788C108.688 182.401 111.313 184.521 111.645 184.503C111.98 184.483 114.13 183.358 116.425 182.003C118.72 180.648 122.885 177.814 125.675 175.704C128.465 173.6 133.225 169.715 136.25 167.07C140.01 163.791 142.145 162.267 143 162.262C143.69 162.252 144.575 162.652 144.975 163.147C145.375 163.636 145.68 164.606 145.65 165.291C145.62 166.026 144.98 167.056 144.1 167.791C143.274 168.481 140.384 170.965 137.675 173.324C134.965 175.679 131.4 178.623 129.75 179.873C128.1 181.123 125.065 183.273 123 184.652C120.94 186.032 117.62 187.977 115.625 188.972C113.63 189.972 111.44 190.786 110.75 190.786C109.985 190.786 108.575 189.962 107.125 188.667C105.82 187.497 102.78 184.688 100.375 182.418C97.9701 180.149 95.6051 178.283 95.1251 178.283C94.6451 178.278 89.6401 177.839 84.0001 177.304C78.3619 176.769 73.6778 176.379 73.5899 176.434C73.4999 176.494 74.1503 180.028 75.0352 184.287C75.9202 188.546 76.8448 192.261 77.0948 192.536C77.3398 192.811 78.8298 192.981 80.3946 192.911C81.9646 192.841 87.155 192.391 100.6 191.036L101.57 192.286C102.105 192.976 102.535 193.816 102.52 194.161C102.509 194.506 102.105 195.196 101.625 195.695C101.145 196.19 99.7401 196.76 98.5001 196.955C97.2651 197.15 92.8751 197.635 88.7501 198.035C84.6251 198.435 79.6751 198.78 77.7501 198.795C75.1151 198.82 73.9648 198.605 73.0948 197.93C72.135 197.185 71.6048 195.505 69.96 188.037C68.875 183.088 67.6399 177.129 67.2149 174.789C66.7949 172.45 66.3497 170.26 66.2247 169.915C66.0882 169.537 63.0089 171.701 58.3751 175.435C54.1801 178.814 48.5 183.163 45.7501 185.103C43.0001 187.042 39.0651 189.672 37.0001 190.946C34.9401 192.221 32.6901 193.271 32.0001 193.281C31.3152 193.296 30.4654 193.016 30.1153 192.671C29.7703 192.321 29.4853 191.306 29.4903 190.411C29.4955 189.426 30.9753 185.742 33.2501 181.038C36.1251 175.099 37.2601 173.219 38.1251 172.989C38.7451 172.829 39.7551 172.829 40.3751 172.989C41.07 173.174 41.6204 173.814 41.8204 174.664C42.0504 175.669 41.715 176.849 40.5802 179.038C39.7252 180.688 39.0198 182.208 39.0098 182.413C39.006 182.617 40.6309 181.673 42.6251 180.309C44.6201 178.944 48.8401 175.754 52.0001 173.215C55.1601 170.68 62.1401 164.991 67.5001 160.577C72.8651 156.158 78.4454 151.644 79.9054 150.544C81.3605 149.444 85.1556 146.409 94.1153 139.046L84.9298 129.878C79.3053 124.265 75.4606 120.79 75.0001 120.914C74.5901 121.024 73.0652 122.679 71.6202 124.584C70.1752 126.489 66.0701 132.432 62.4952 137.796C58.9254 143.16 55.5902 148.109 55.0899 148.794C54.5849 149.484 52.7052 152.409 50.9102 155.293C49.1153 158.177 46.6252 162.341 45.3702 164.541C43.8652 167.186 42.695 168.661 41.92 168.896C41.19 169.121 40.33 168.98 39.6251 168.521C38.9051 168.051 38.5049 167.301 38.5098 166.416C38.5148 165.661 39.1947 163.802 40.0196 162.292C40.8446 160.782 41.5197 159.317 41.5147 159.042C41.5085 158.766 39.7897 156.967 37.6905 155.043C34.6505 152.259 33.2999 150.519 31.0899 146.545C29.56 143.796 27.1154 139.016 25.6554 135.922C24.1954 132.828 22.4002 128.554 21.6651 126.424C20.7752 123.841 20.442 122.091 20.6651 121.175C20.8801 120.3 21.5001 119.615 22.3751 119.29C23.4051 118.91 24.0001 118.955 24.7501 119.475C25.345 119.885 26.2447 121.764 26.9747 124.108C27.6447 126.273 30.0905 131.873 32.4005 136.547C36.3052 144.445 36.8852 145.335 40.6749 149.179C42.9149 151.458 44.9201 153.314 45.1251 153.304C45.3301 153.299 46.4001 151.834 47.5001 150.044C48.5998 148.26 49.4948 146.515 49.4952 146.17C49.4902 145.825 47.0103 141.386 43.9854 136.297C40.9559 131.214 38.4811 126.545 38.4903 125.924C38.4953 125.304 38.8552 124.464 39.2852 124.049C39.7203 123.639 40.5603 123.304 41.1602 123.309C41.7602 123.309 42.5054 123.479 42.8204 123.684C43.1355 123.884 44.23 125.514 45.2598 127.298C46.2898 129.088 48.4505 132.742 50.0655 135.422C51.6804 138.101 53.1701 140.286 53.3751 140.271C53.5805 140.255 57.0154 135.522 61.0001 129.748C64.9901 123.974 69.3855 118.02 70.7755 116.525C72.6304 114.521 73.6555 113.801 74.6505 113.801Z" fill="white"></path>
<path d="M9.25008 150.304C9.52509 150.314 10.485 151.159 11.38 152.184C12.28 153.208 15.5155 157.303 18.5655 161.292C21.6204 165.281 25.4396 170.06 27.0597 171.915C28.6747 173.77 29.9954 175.684 29.9854 176.164C29.9804 176.644 29.5853 177.439 29.1104 177.929C28.6404 178.419 27.8001 178.823 27.2501 178.823C26.7001 178.823 25.5951 178.309 24.7901 177.679C23.9901 177.054 20.8098 173.389 17.7198 169.54C14.6348 165.691 10.8447 160.797 9.30477 158.667C7.54993 156.248 6.47465 154.243 6.43465 153.323C6.38469 152.279 6.70976 151.623 7.55965 151.068C8.21465 150.639 8.97508 150.294 9.25008 150.304Z" fill="white"></path>
<path d="M2.63485 113.786C3.24985 113.776 4.12051 114.171 4.56551 114.661C5.01552 115.152 5.73514 116.791 6.17 118.3C6.6 119.815 8.05547 123.299 9.40047 126.049C10.7405 128.798 13.3656 133.748 15.2305 137.047C17.0956 140.346 20.2752 145.52 22.2901 148.544C24.3051 151.568 27.2047 155.448 28.7247 157.168C30.2497 158.888 31.5001 160.742 31.5001 161.292C31.5 161.842 31.0499 162.741 30.5001 163.291C29.9501 163.841 29.2201 164.282 28.8751 164.272C28.5301 164.267 27.7553 163.981 27.1554 163.647C26.5504 163.317 24.7952 161.467 23.2452 159.542C21.6952 157.617 19.0048 153.909 17.2598 151.294C15.5198 148.68 12.48 143.735 10.505 140.296C8.53496 136.862 5.67547 131.462 4.15047 128.298C2.63055 125.139 1.0156 121.18 0.565511 119.505C-0.199428 116.636 -0.199951 116.38 0.634847 115.131C1.13979 114.366 1.99487 113.796 2.63485 113.786Z" fill="white"></path>
<path d="M128.375 70.8487C128.995 70.8287 129.84 71.1488 130.25 71.5587C130.66 71.9686 131.115 72.7588 131.25 73.3087C131.385 73.8585 131.19 74.9279 130.816 75.6827C130.441 76.4376 128.27 79.0822 126 81.5567C123.73 84.0313 120.995 86.8409 119.92 87.8058C118.85 88.7706 117.98 89.9508 117.985 90.4308C117.996 90.9131 119.706 95.5264 121.79 100.679C124.54 107.492 125.53 110.526 125.415 111.786C125.28 113.176 124.785 113.866 122.91 115.285C121.625 116.255 116.9 118.935 112.41 121.234C105.31 124.879 104.105 125.348 103.125 124.858C102.505 124.554 101.865 123.794 101.7 123.174C101.54 122.554 101.705 121.534 102.075 120.904C102.481 120.214 105.905 118.125 110.675 115.655C115.028 113.397 118.798 111.273 119.05 110.927C119.345 110.512 118.225 107.157 115.75 101.053C113.25 94.8881 112 91.1391 112 89.8058C112 88.0111 112.395 87.3759 115.885 83.5567C118.025 81.2172 119.54 79.3125 119.26 79.3175C118.979 79.3177 117.06 79.8077 115 80.4024C111.455 81.4172 111.175 81.4315 109.875 80.6417C108.925 80.0669 108.496 79.3824 108.481 78.4327C108.466 77.6779 108.746 76.7976 109.106 76.4776C109.463 76.157 113.687 74.7678 118.5 73.3936C123.315 72.0139 127.755 70.8687 128.375 70.8487Z" fill="white"></path>
<path d="M39.2003 87.7911C39.7752 87.7812 40.7001 88.2455 41.2501 88.8253C42.0401 89.6551 42.18 90.2603 41.92 91.7149C41.74 92.7247 41.005 96.8746 40.295 100.929C39.5851 104.983 38.9699 109.706 38.9298 111.426C38.8948 113.145 38.6098 115.18 38.3048 115.95C37.9998 116.725 37.3551 117.455 36.8751 117.575C36.3951 117.7 35.6051 117.695 35.1251 117.57C34.6451 117.445 33.9701 116.77 33.6251 116.07C33.2801 115.371 33.0001 113.731 33.0001 112.426C33.0001 111.121 33.455 107.242 34.005 103.803C34.56 100.369 35.3698 95.7544 35.8048 93.5548C36.2448 91.3553 36.9501 89.1608 37.3751 88.6808C37.8001 88.2008 38.6203 87.8011 39.2003 87.7911Z" fill="white"></path>
<path d="M22.3448 80.9024C22.9048 80.0226 23.4604 79.7875 24.6554 79.9024C25.7551 80.0125 26.4055 80.432 26.8155 81.3067C27.2755 82.2865 27.2549 83.1571 26.7149 85.3067C26.3348 86.8219 25.2354 91.546 24.2755 95.8048C23.3105 100.069 22.2955 105.692 22.0255 108.302C21.6505 111.896 21.3147 113.206 20.6397 113.686C20.1497 114.031 19.245 114.316 18.6251 114.311C17.9401 114.306 17.1751 113.766 16.6651 112.926C15.9952 111.821 15.9054 110.911 16.1954 108.302C16.3904 106.517 16.7797 103.702 17.0597 102.053C17.3347 100.403 18.4701 95.2295 19.585 90.5558C20.6948 85.8825 21.9346 81.5385 22.3448 80.9024Z" fill="white"></path>
<path d="M119.875 56.3272C120.22 56.3172 120.95 56.7617 121.5 57.3116C122.05 57.8615 122.5 58.7617 122.5 59.3116C122.5 59.8615 122.09 60.7058 121.585 61.1856C121.08 61.6655 117.875 64.33 114.46 67.1095C111.045 69.8838 107.745 72.4134 107.125 72.7335C106.505 73.0484 105.495 73.1739 104.875 73.004C104.255 72.839 102.79 71.7689 99.4903 68.5597L97.8702 69.5147C96.98 70.0398 93.3249 72.6692 89.7501 75.3536C86.1751 78.0431 82.295 81.1574 79.0001 84.3067L81.5401 87.1808C82.9351 88.7605 84.6648 91.0704 86.6798 94.5548L86.0001 101.053C85.4751 106.057 85.1102 107.752 84.4102 108.427C83.9102 108.907 83.1051 109.306 82.6251 109.316C82.1451 109.326 81.3398 108.931 80.8448 108.441C80.0251 107.637 79.9704 106.941 80.6153 95.0548L78.1202 92.0548C76.7452 90.4051 74.9149 88.3806 74.0499 87.5558C72.9501 86.5061 72.4851 85.6064 72.505 84.5567C72.515 83.7319 73.0448 82.3816 73.6798 81.5567C74.3098 80.7319 77.0601 78.1823 79.7901 75.8878C82.5201 73.5982 87.2251 69.9593 90.2501 67.8048C93.275 65.6453 96.595 63.5308 97.6251 63.0958C98.6551 62.6659 99.8951 62.456 100.375 62.631C100.855 62.8111 102.265 63.806 105.75 66.7452L108.25 64.7101C109.625 63.5903 112.215 61.5059 114 60.0811C115.785 58.6516 117.7 57.2272 118.25 56.9171C118.8 56.6021 119.53 56.3372 119.875 56.3272Z" fill="white"></path>
<path d="M9.00008 75.3077C9.68997 75.2977 10.5347 75.5781 10.8848 75.9229C11.2298 76.2729 11.5148 77.0628 11.5098 77.6827C11.5048 78.3026 10.9599 80.6622 10.2999 82.9317C9.63989 85.2013 8.50535 89.8705 7.78035 93.3048C7.05035 96.7441 6.30055 101.214 6.10555 103.243C5.83056 106.117 5.53005 107.082 4.75008 107.622C4.20009 108.002 3.47008 108.307 3.12508 108.307C2.78008 108.302 2.05008 107.852 1.50008 107.302C0.740187 106.542 0.500081 105.637 0.500081 103.553C0.500084 102.043 0.965271 98.3841 1.53524 95.4298C2.10023 92.4754 3.24528 87.3561 4.07528 84.0567C4.91028 80.7574 5.8252 77.6076 6.1202 77.0577C6.4102 76.5079 6.8953 75.8934 7.20028 75.6935C7.50028 75.4885 8.31508 75.3177 9.00008 75.3077Z" fill="white"></path>
<path fill-rule="evenodd" clip-rule="evenodd" d="M100.125 74.8487C100.33 74.8287 100.87 74.9777 101.325 75.1827C101.775 75.3877 102.82 76.908 103.645 78.5577C104.47 80.2074 106.005 82.907 107.055 84.5567C108.11 86.2064 108.98 87.9509 108.985 88.4308C108.995 88.9107 108.495 90.0056 107.875 90.8604C107.255 91.7154 104.5 93.7397 101.75 95.3643C99.0001 96.989 96.2451 98.3137 95.6251 98.3087C94.9351 98.3087 93.8701 97.554 92.8751 96.3692C91.9801 95.3044 90.0701 92.1547 88.6251 89.3702C86.4152 85.1062 86.0855 84.1265 86.5255 83.1817C86.8208 82.5517 89.5257 80.587 92.6505 78.7325C95.7301 76.9031 98.5898 75.2887 99.0001 75.1485C99.4101 75.0036 99.9201 74.8687 100.125 74.8487ZM98.6348 81.9571C98.4249 81.9071 97.0149 82.6315 95.505 83.5763C94.0003 84.5259 92.8251 85.4656 92.8995 85.6759C92.9745 85.8858 93.8147 87.3511 94.7647 88.9308C96.3746 91.6 96.5801 91.7646 97.6251 91.2247C98.2453 90.9046 99.5953 90.1204 100.625 89.4757L102.5 88.3058C99.8063 83.4638 98.8504 82.0133 98.6348 81.9571Z" fill="white"></path>
<path d="M54.0753 58.8067C54.4453 58.8069 55.2552 59.141 55.8751 59.5558C56.495 59.9706 57 60.8158 57.0001 61.4356C56.9951 62.0555 54.7451 66.2747 51.9952 70.8087C49.2503 75.3426 46.5103 80.2968 45.9151 81.8067C45.3251 83.3214 44.59 84.8463 44.295 85.2013C43.995 85.5612 43.1301 85.8413 42.3751 85.8263C41.4584 85.8129 40.7084 85.3647 40.1251 84.4815C39.2801 83.2068 39.2898 83.0416 40.3897 80.1075C41.0197 78.4278 43.6047 73.5984 46.1397 69.3692C48.6747 65.14 51.3453 61.036 52.0753 60.2462C52.8053 59.4563 53.7053 58.8117 54.0753 58.8067Z" fill="white"></path>
<path d="M43.1847 45.8087C43.4947 45.8087 44.2551 46.1438 44.8751 46.5587C45.585 47.0386 46.0001 47.8188 46.0001 48.6886C45.9998 49.4736 45.2253 51.1331 44.1905 52.5626C43.1955 53.9373 40.3598 58.1013 37.8848 61.8106C35.4099 65.5249 32.5447 70.2491 31.5147 72.3087C30.1899 74.9629 29.2953 76.1631 28.4454 76.4132C27.6954 76.6381 26.8351 76.4981 26.1251 76.0382C25.3718 75.5516 24.9968 74.8084 25.0001 73.8087C25.0001 72.9838 25.9305 70.5643 27.0655 68.4347C28.2005 66.305 31.7047 60.7357 34.8497 56.0616C37.9993 51.3881 41.0341 47.1694 41.5997 46.6886C42.1644 46.2089 42.8744 45.814 43.1847 45.8087Z" fill="white"></path>
<path d="M30.3751 35.8507C30.4451 35.8307 30.9501 36.0406 31.5001 36.3155C32.0501 36.5905 32.7251 37.2656 33.0001 37.8155C33.3 38.4103 33.3246 39.1647 33.0597 39.6895C32.8197 40.1695 31.4297 42.1399 29.9747 44.0645C28.5146 45.9894 25.7796 49.9234 23.8897 52.8126C22.0048 55.7019 19.825 59.4109 19.045 61.0606C18.265 62.7103 17.2446 64.4007 16.7696 64.8106C16.1148 65.3801 15.5996 65.4395 14.5948 65.0597C13.8699 64.7846 13.0696 64.0004 12.8097 63.3106C12.4397 62.3159 12.6751 61.3459 13.96 58.5616C14.85 56.637 17.0449 52.8121 18.8399 50.0626C20.6349 47.3131 23.48 43.2138 25.17 40.9493C26.855 38.6898 28.6902 36.6254 29.2452 36.3604C29.7951 36.1005 30.3051 35.8657 30.3751 35.8507Z" fill="white"></path>
<path d="M97.0001 1.4874C100.325 0.297626 102.275 -0.13776 103.5 0.0372024C104.47 0.177163 105.675 0.796915 106.205 1.43173C106.725 2.05659 108.36 5.1011 109.83 8.19541C111.3 11.2897 112.505 14.4394 112.515 15.1944C112.52 15.9943 112.05 17.019 111.39 17.6339C110.76 18.2238 109.52 19.064 108.625 19.5089C107.73 19.9538 107.005 20.4885 107.005 20.6935C107.01 20.8984 107.69 22.418 108.52 24.0675C109.345 25.7172 110.02 27.5726 110.01 28.1925C110.005 28.8125 109.38 29.9472 108.625 30.7169C107.8 31.5618 103.465 33.7958 97.7501 36.3302C92.5251 38.6497 82.5151 43.4145 75.5001 46.9288C68.4852 50.4381 62.2452 53.3075 61.6251 53.3126C61.0001 53.3126 60.2801 52.8675 60.0001 52.3126C59.7251 51.7627 59.5001 50.9775 59.5001 50.5626C59.5003 50.1476 60.0053 49.3433 60.6251 48.7735C61.2451 48.2036 65.6901 45.7784 70.5001 43.3839C75.3151 40.9943 84.4251 36.7401 90.7501 33.9356C97.0738 31.1317 102.668 28.548 103.18 28.2022C104.08 27.5874 104.075 27.5021 103.055 25.4425C102.475 24.2728 101.83 23.2177 101.625 23.0977C101.418 22.9789 93.9335 26.0086 85.0001 29.8272C76.0601 33.6465 65.4301 38.4704 61.3751 40.545C55.0205 43.7892 53.825 44.2444 52.7501 43.8145C52.0651 43.5396 51.3902 42.8644 51.2501 42.3145C51.1101 41.7647 51.2851 40.795 51.63 40.1651C52.045 39.4003 55.375 37.4699 61.505 34.4405C66.59 31.921 78.7351 26.4573 88.5001 22.2931C98.2629 18.1298 106.357 14.6263 106.5 14.5099C106.64 14.3949 105.785 12.3351 104.61 9.93564C102.786 6.22688 102.3 5.59118 101.36 5.71591C100.75 5.8009 97.215 7.06567 93.5001 8.53037C89.7851 9.99509 81.9101 13.275 76.0001 15.8145C70.0901 18.3541 62.5501 21.7735 59.2501 23.4132C55.9502 25.0528 51.2251 27.5968 48.7501 29.0665C46.2751 30.5362 42.7901 32.7715 41.0001 34.0362C39.2102 35.2959 37.5251 36.3206 37.2501 36.3106C36.9751 36.3006 36.3504 35.9007 35.8604 35.4259C35.3705 34.956 34.9756 33.9463 34.9854 33.1915C34.9954 32.1867 35.5701 31.3562 37.1251 30.1114C38.2952 29.1715 41.9502 26.7975 45.2501 24.838C48.5501 22.8784 53.8401 19.9535 57.0001 18.3438C60.1601 16.7291 67.5901 13.3898 73.5001 10.9102C79.41 8.43577 86.05 5.68673 88.2501 4.80185C90.4501 3.91703 94.3901 2.42722 97.0001 1.4874Z" fill="white"></path>
</svg>
